<svg width="25" height="25" viewBox="0 0 25 25" fill="none" xmlns="http://www.w3.org/2000/svg">
<path d="M22.8765 0.00227399C22.5152 0.0197156 22.1837 0.135036 21.8925 0.262441C21.6234 0.380049 20.6572 0.830782 19.1187 1.54702C17.5801 2.26325 15.5415 3.21289 13.3684 4.22728C9.02233 6.25606 4.13845 8.53819 1.63595 9.70705C1.55001 9.74679 1.201 9.86538 0.815534 10.1922C0.429172 10.5197 0 11.2305 0 12.0079C0 12.635 0.282053 13.2737 0.622638 13.6394C0.963223 14.005 1.3084 14.176 1.59688 14.3033V14.3006C2.57204 14.7318 5.48419 16.0252 6.17755 16.3332C6.42349 17.1512 7.47931 20.6532 7.73048 21.5338H7.72804C7.90558 22.1571 8.07863 22.5633 8.31894 22.9024C8.43909 23.0719 8.58252 23.2256 8.75845 23.3469C8.82595 23.3934 8.90069 23.4295 8.97576 23.4634C8.98622 23.4683 8.997 23.4695 9.0075 23.4742L8.9782 23.4661C8.99997 23.4758 9.0195 23.4901 9.04169 23.4986C9.07783 23.5124 9.10289 23.512 9.15156 23.523C9.32284 23.5815 9.49381 23.6206 9.65212 23.6206C10.3317 23.6206 10.7484 23.2113 10.7484 23.2114L10.7753 23.1897L13.7103 20.4335L17.3045 24.1246C17.3701 24.2275 17.8844 25 19.0747 25C19.785 25 20.3465 24.6098 20.7058 24.2005C21.0651 23.7913 21.2889 23.3725 21.3895 22.8048L21.3919 22.8021C21.4721 22.344 24.9129 3.16764 24.9129 3.16764L24.9055 3.20016C25.0126 2.66964 25.0442 2.15658 24.9177 1.63374C24.7912 1.1109 24.4498 0.600659 24.0387 0.332903C23.6276 0.0651476 23.2377 -0.0151682 22.8765 0.00227399ZM22.3832 3.04027C22.2473 3.79792 19.1651 20.9842 18.9746 22.0623L13.7835 16.7316L10.2748 20.0243L11.2466 15.8074C11.2466 15.8074 17.9506 8.27557 18.3544 7.8371C18.6794 7.48605 18.7475 7.36299 18.7475 7.24088C18.7475 7.07854 18.6722 6.96175 18.4985 6.96175C18.3422 6.96175 18.13 7.12795 18.0174 7.20565C16.5877 8.19499 10.4981 12.0467 7.5034 13.9375C7.32318 13.8573 4.61745 12.6514 3.15958 12.0052C5.75275 10.7939 10.1979 8.71813 14.3378 6.78559C16.5104 5.77137 18.5485 4.82088 20.0856 4.10533C21.3831 3.50131 22.0599 3.18856 22.3832 3.04027ZM18.938 22.2601H18.9404C18.9404 22.2604 18.9381 22.2678 18.938 22.2682C18.9396 22.2593 18.9368 22.2671 18.938 22.2601Z" fill="#CCCCCC"/>
</svg>
