<svg width="450" height="180" viewBox="0 0 450 180" fill="none" xmlns="http://www.w3.org/2000/svg">
<rect width="450" height="180" rx="6" fill="#CCE8E9"/>
<path d="M225.2 55V42.64H220.38V40.9H232.1V42.64H227.28V55H225.2ZM234.167 55V44.92H236.187V55H234.167ZM234.007 42.82V40.72H236.347V42.82H234.007ZM239.447 55V47.34C239.447 46.9533 239.427 46.56 239.387 46.16C239.361 45.7467 239.327 45.3333 239.287 44.92H241.247L241.427 47.04H241.187C241.467 46.3067 241.894 45.74 242.467 45.34C243.054 44.94 243.754 44.74 244.567 44.74C245.394 44.74 246.067 44.94 246.587 45.34C247.121 45.7267 247.487 46.3267 247.687 47.14H247.367C247.634 46.4067 248.087 45.8267 248.727 45.4C249.367 44.96 250.107 44.74 250.947 44.74C252.067 44.74 252.907 45.0667 253.467 45.72C254.027 46.3733 254.307 47.3867 254.307 48.76V55H252.287V48.86C252.287 47.98 252.134 47.3467 251.827 46.96C251.534 46.56 251.054 46.36 250.387 46.36C249.614 46.36 249.001 46.6267 248.547 47.16C248.094 47.6933 247.867 48.4133 247.867 49.32V55H245.847V48.86C245.847 47.98 245.694 47.3467 245.387 46.96C245.094 46.56 244.614 46.36 243.947 46.36C243.174 46.36 242.567 46.6267 242.127 47.16C241.687 47.6933 241.467 48.4133 241.467 49.32V55H239.447ZM267.193 55L262.253 40.9H264.413L268.513 53.08H267.773L272.113 40.9H273.693L277.773 53.08H277.093L281.333 40.9H283.373L278.393 55H276.613L272.653 43.4H273.073L268.953 55H267.193ZM289.206 55.18C287.58 55.18 286.3 54.72 285.366 53.8C284.433 52.88 283.966 51.6067 283.966 49.98C283.966 48.9267 284.166 48.0067 284.566 47.22C284.98 46.4333 285.546 45.8267 286.266 45.4C287 44.96 287.846 44.74 288.806 44.74C289.753 44.74 290.546 44.94 291.186 45.34C291.826 45.74 292.313 46.3067 292.646 47.04C292.98 47.76 293.146 48.6133 293.146 49.6V50.24H285.546V49.08H291.766L291.426 49.34C291.426 48.34 291.2 47.5667 290.746 47.02C290.306 46.46 289.666 46.18 288.826 46.18C287.893 46.18 287.173 46.5067 286.666 47.16C286.16 47.8 285.906 48.6867 285.906 49.82V50.02C285.906 51.2067 286.193 52.1 286.766 52.7C287.353 53.3 288.18 53.6 289.246 53.6C289.833 53.6 290.38 53.52 290.886 53.36C291.406 53.1867 291.9 52.9067 292.366 52.52L293.026 53.9C292.56 54.3133 291.993 54.6333 291.326 54.86C290.66 55.0733 289.953 55.18 289.206 55.18ZM301.144 55.18C300.264 55.18 299.498 54.96 298.844 54.52C298.191 54.08 297.758 53.48 297.544 52.72H297.764V55H295.764V40.28H297.784V47.16H297.544C297.771 46.4133 298.204 45.8267 298.844 45.4C299.498 44.96 300.264 44.74 301.144 44.74C302.038 44.74 302.818 44.9533 303.484 45.38C304.151 45.7933 304.664 46.3933 305.024 47.18C305.398 47.9533 305.584 48.8867 305.584 49.98C305.584 51.06 305.398 51.9933 305.024 52.78C304.664 53.5533 304.144 54.1467 303.464 54.56C302.798 54.9733 302.024 55.18 301.144 55.18ZM300.644 53.6C301.511 53.6 302.211 53.3 302.744 52.7C303.278 52.0867 303.544 51.18 303.544 49.98C303.544 48.7667 303.278 47.86 302.744 47.26C302.211 46.6467 301.511 46.34 300.644 46.34C299.764 46.34 299.058 46.6467 298.524 47.26C298.004 47.86 297.744 48.76 297.744 49.96C297.744 51.16 298.004 52.0667 298.524 52.68C299.058 53.2933 299.764 53.6 300.644 53.6ZM313.632 55.18C312.752 55.18 311.985 54.96 311.332 54.52C310.679 54.08 310.245 53.48 310.032 52.72H310.252V55H308.252V40.28H310.272V47.16H310.032C310.259 46.4133 310.692 45.8267 311.332 45.4C311.985 44.96 312.752 44.74 313.632 44.74C314.525 44.74 315.305 44.9533 315.972 45.38C316.639 45.7933 317.152 46.3933 317.512 47.18C317.885 47.9533 318.072 48.8867 318.072 49.98C318.072 51.06 317.885 51.9933 317.512 52.78C317.152 53.5533 316.632 54.1467 315.952 54.56C315.285 54.9733 314.512 55.18 313.632 55.18ZM313.132 53.6C313.999 53.6 314.699 53.3 315.232 52.7C315.765 52.0867 316.032 51.18 316.032 49.98C316.032 48.7667 315.765 47.86 315.232 47.26C314.699 46.6467 313.999 46.34 313.132 46.34C312.252 46.34 311.545 46.6467 311.012 47.26C310.492 47.86 310.232 48.76 310.232 49.96C310.232 51.16 310.492 52.0667 311.012 52.68C311.545 53.2933 312.252 53.6 313.132 53.6ZM193.66 75V60.9H202.7V62.56H195.74V67.08H202.24V68.74H195.74V75H193.66ZM209.077 75.18C208.077 75.18 207.21 74.9733 206.477 74.56C205.743 74.1333 205.177 73.5333 204.777 72.76C204.377 71.9733 204.177 71.04 204.177 69.96C204.177 68.88 204.377 67.9533 204.777 67.18C205.177 66.3933 205.743 65.7933 206.477 65.38C207.21 64.9533 208.077 64.74 209.077 64.74C210.077 64.74 210.943 64.9533 211.677 65.38C212.423 65.7933 212.997 66.3933 213.397 67.18C213.81 67.9533 214.017 68.88 214.017 69.96C214.017 71.04 213.81 71.9733 213.397 72.76C212.997 73.5333 212.423 74.1333 211.677 74.56C210.943 74.9733 210.077 75.18 209.077 75.18ZM209.077 73.6C209.957 73.6 210.657 73.2933 211.177 72.68C211.697 72.0667 211.957 71.16 211.957 69.96C211.957 68.76 211.697 67.86 211.177 67.26C210.657 66.6467 209.957 66.34 209.077 66.34C208.21 66.34 207.517 66.6467 206.997 67.26C206.477 67.86 206.217 68.76 206.217 69.96C206.217 71.16 206.47 72.0667 206.977 72.68C207.497 73.2933 208.197 73.6 209.077 73.6ZM220.258 75.18C219.044 75.18 218.131 74.8533 217.518 74.2C216.918 73.5333 216.618 72.5133 216.618 71.14V64.92H218.638V71.1C218.638 71.94 218.811 72.56 219.158 72.96C219.504 73.36 220.031 73.56 220.738 73.56C221.538 73.56 222.184 73.2933 222.678 72.76C223.171 72.2267 223.418 71.52 223.418 70.64V64.92H225.438V75H223.478V72.84H223.738C223.458 73.5867 223.011 74.1667 222.398 74.58C221.784 74.98 221.071 75.18 220.258 75.18ZM228.696 75V67.34C228.696 66.9533 228.676 66.56 228.636 66.16C228.61 65.7467 228.576 65.3333 228.536 64.92H230.496L230.676 67.04H230.436C230.743 66.2933 231.216 65.7267 231.856 65.34C232.496 64.94 233.236 64.74 234.076 64.74C235.263 64.74 236.156 65.0667 236.756 65.72C237.37 66.3733 237.676 67.3867 237.676 68.76V75H235.656V68.88C235.656 67.9867 235.476 67.3467 235.116 66.96C234.77 66.56 234.236 66.36 233.516 66.36C232.663 66.36 231.983 66.6267 231.476 67.16C230.97 67.68 230.716 68.3867 230.716 69.28V75H228.696ZM244.712 75.18C243.832 75.18 243.052 74.9733 242.372 74.56C241.705 74.1467 241.185 73.5467 240.812 72.76C240.452 71.9733 240.272 71.04 240.272 69.96C240.272 68.8667 240.452 67.9333 240.812 67.16C241.185 66.3867 241.705 65.7933 242.372 65.38C243.052 64.9533 243.832 64.74 244.712 64.74C245.579 64.74 246.339 64.96 246.992 65.4C247.659 65.8267 248.099 66.4133 248.312 67.16H248.072V60.28H250.092V75H248.092V72.72H248.332C248.105 73.48 247.665 74.08 247.012 74.52C246.359 74.96 245.592 75.18 244.712 75.18ZM245.212 73.6C246.079 73.6 246.779 73.2933 247.312 72.68C247.845 72.0667 248.112 71.16 248.112 69.96C248.112 68.76 247.845 67.86 247.312 67.26C246.779 66.6467 246.079 66.34 245.212 66.34C244.332 66.34 243.625 66.6467 243.092 67.26C242.572 67.86 242.312 68.76 242.312 69.96C242.312 71.16 242.572 72.0667 243.092 72.68C243.625 73.2933 244.332 73.6 245.212 73.6ZM257.999 75.18C256.373 75.18 255.093 74.72 254.159 73.8C253.226 72.88 252.759 71.6067 252.759 69.98C252.759 68.9267 252.959 68.0067 253.359 67.22C253.773 66.4333 254.339 65.8267 255.059 65.4C255.793 64.96 256.639 64.74 257.599 64.74C258.546 64.74 259.339 64.94 259.979 65.34C260.619 65.74 261.106 66.3067 261.439 67.04C261.773 67.76 261.939 68.6133 261.939 69.6V70.24H254.339V69.08H260.559L260.219 69.34C260.219 68.34 259.993 67.5667 259.539 67.02C259.099 66.46 258.459 66.18 257.619 66.18C256.686 66.18 255.966 66.5067 255.459 67.16C254.953 67.8 254.699 68.6867 254.699 69.82V70.02C254.699 71.2067 254.986 72.1 255.559 72.7C256.146 73.3 256.973 73.6 258.039 73.6C258.626 73.6 259.173 73.52 259.679 73.36C260.199 73.1867 260.693 72.9067 261.159 72.52L261.819 73.9C261.353 74.3133 260.786 74.6333 260.119 74.86C259.453 75.0733 258.746 75.18 257.999 75.18ZM264.517 75V67.42C264.517 67.0067 264.504 66.5933 264.477 66.18C264.464 65.7533 264.437 65.3333 264.397 64.92H266.357L266.577 67.52H266.257C266.391 66.8933 266.617 66.3733 266.937 65.96C267.257 65.5467 267.644 65.24 268.097 65.04C268.564 64.84 269.051 64.74 269.557 64.74C269.771 64.74 269.951 64.7533 270.097 64.78C270.244 64.7933 270.391 64.82 270.537 64.86L270.517 66.66C270.291 66.5667 270.091 66.5133 269.917 66.5C269.757 66.4733 269.557 66.46 269.317 66.46C268.731 66.46 268.231 66.5933 267.817 66.86C267.404 67.1133 267.091 67.46 266.877 67.9C266.664 68.34 266.557 68.8133 266.557 69.32V75H264.517ZM278.208 75V60.9H284.188C285.695 60.9 286.848 61.2667 287.648 62C288.462 62.72 288.868 63.72 288.868 65C288.868 66.28 288.462 67.2867 287.648 68.02C286.848 68.7533 285.695 69.12 284.188 69.12H280.288V75H278.208ZM280.288 67.46H283.968C284.915 67.46 285.628 67.2467 286.108 66.82C286.588 66.3933 286.828 65.7867 286.828 65C286.828 64.2267 286.588 63.6267 286.108 63.2C285.628 62.7733 284.915 62.56 283.968 62.56H280.288V67.46ZM295.344 75.18C294.344 75.18 293.477 74.9733 292.744 74.56C292.01 74.1333 291.444 73.5333 291.044 72.76C290.644 71.9733 290.444 71.04 290.444 69.96C290.444 68.88 290.644 67.9533 291.044 67.18C291.444 66.3933 292.01 65.7933 292.744 65.38C293.477 64.9533 294.344 64.74 295.344 64.74C296.344 64.74 297.21 64.9533 297.944 65.38C298.69 65.7933 299.264 66.3933 299.664 67.18C300.077 67.9533 300.284 68.88 300.284 69.96C300.284 71.04 300.077 71.9733 299.664 72.76C299.264 73.5333 298.69 74.1333 297.944 74.56C297.21 74.9733 296.344 75.18 295.344 75.18ZM295.344 73.6C296.224 73.6 296.924 73.2933 297.444 72.68C297.964 72.0667 298.224 71.16 298.224 69.96C298.224 68.76 297.964 67.86 297.444 67.26C296.924 66.6467 296.224 66.34 295.344 66.34C294.477 66.34 293.784 66.6467 293.264 67.26C292.744 67.86 292.484 68.76 292.484 69.96C292.484 71.16 292.737 72.0667 293.244 72.68C293.764 73.2933 294.464 73.6 295.344 73.6ZM305.509 75L301.689 64.92H303.789L306.769 73.32H306.249L309.309 64.92H310.869L313.909 73.32H313.409L316.389 64.92H318.409L314.569 75H312.729L309.569 66.44H310.509L307.389 75H305.509ZM325.053 75.18C323.427 75.18 322.147 74.72 321.213 73.8C320.28 72.88 319.813 71.6067 319.813 69.98C319.813 68.9267 320.013 68.0067 320.413 67.22C320.827 66.4333 321.393 65.8267 322.113 65.4C322.847 64.96 323.693 64.74 324.653 64.74C325.6 64.74 326.393 64.94 327.033 65.34C327.673 65.74 328.16 66.3067 328.493 67.04C328.827 67.76 328.993 68.6133 328.993 69.6V70.24H321.393V69.08H327.613L327.273 69.34C327.273 68.34 327.047 67.5667 326.593 67.02C326.153 66.46 325.513 66.18 324.673 66.18C323.74 66.18 323.02 66.5067 322.513 67.16C322.007 67.8 321.753 68.6867 321.753 69.82V70.02C321.753 71.2067 322.04 72.1 322.613 72.7C323.2 73.3 324.027 73.6 325.093 73.6C325.68 73.6 326.227 73.52 326.733 73.36C327.253 73.1867 327.747 72.9067 328.213 72.52L328.873 73.9C328.407 74.3133 327.84 74.6333 327.173 74.86C326.507 75.0733 325.8 75.18 325.053 75.18ZM331.571 75V67.42C331.571 67.0067 331.558 66.5933 331.531 66.18C331.518 65.7533 331.491 65.3333 331.451 64.92H333.411L333.631 67.52H333.311C333.445 66.8933 333.671 66.3733 333.991 65.96C334.311 65.5467 334.698 65.24 335.151 65.04C335.618 64.84 336.105 64.74 336.611 64.74C336.825 64.74 337.005 64.7533 337.151 64.78C337.298 64.7933 337.445 64.82 337.591 64.86L337.571 66.66C337.345 66.5667 337.145 66.5133 336.971 66.5C336.811 66.4733 336.611 66.46 336.371 66.46C335.785 66.46 335.285 66.5933 334.871 66.86C334.458 67.1133 334.145 67.46 333.931 67.9C333.718 68.34 333.611 68.8133 333.611 69.32V75H331.571ZM339.63 75V60.9H344.51C346.097 60.9 347.437 61.1733 348.53 61.72C349.637 62.2667 350.47 63.0667 351.03 64.12C351.604 65.16 351.89 66.4333 351.89 67.94C351.89 69.4333 351.604 70.7067 351.03 71.76C350.47 72.8133 349.637 73.62 348.53 74.18C347.437 74.7267 346.097 75 344.51 75H339.63ZM341.71 73.26H344.39C346.204 73.26 347.55 72.82 348.43 71.94C349.324 71.06 349.77 69.7267 349.77 67.94C349.77 66.1533 349.324 64.8267 348.43 63.96C347.55 63.08 346.204 62.64 344.39 62.64H341.71V73.26ZM355.428 75V66.48H353.468V64.92H355.988L355.428 65.44V63.84C355.428 62.6533 355.722 61.7533 356.308 61.14C356.908 60.5133 357.775 60.2 358.908 60.2C359.175 60.2 359.462 60.22 359.768 60.26C360.075 60.3 360.335 60.3667 360.548 60.46V62.1C360.388 62.0333 360.188 61.98 359.948 61.94C359.708 61.8867 359.475 61.86 359.248 61.86C358.662 61.86 358.208 62.0333 357.888 62.38C357.582 62.7133 357.428 63.24 357.428 63.96V65.32L357.128 64.92H363.828V75H361.808V66.48H357.448V75H355.428ZM361.648 62.82V60.72H363.988V62.82H361.648Z" fill="black"/>
<path d="M288.667 90H265.333C263.492 90 262 91.4917 262 93.3333V116.667C262 118.508 263.492 120 265.333 120H288.667C290.508 120 292 118.508 292 116.667V93.3333C292 91.4917 290.508 90 288.667 90ZM272 113.333H267.795V101.667H272V113.333ZM269.823 99.5283C268.538 99.5283 267.68 98.6717 267.68 97.5283C267.68 96.385 268.537 95.5283 269.965 95.5283C271.25 95.5283 272.108 96.385 272.108 97.5283C272.108 98.6717 271.252 99.5283 269.823 99.5283ZM287 113.333H282.93V106.957C282.93 105.193 281.845 104.787 281.438 104.787C281.032 104.787 279.675 105.058 279.675 106.957C279.675 107.228 279.675 113.333 279.675 113.333H275.47V101.667H279.675V103.295C280.217 102.345 281.302 101.667 283.337 101.667C285.372 101.667 287 103.295 287 106.957V113.333Z" fill="#CCCCCC"/>
</svg>
