<svg width="25" height="25" viewBox="0 0 25 25" fill="none" xmlns="http://www.w3.org/2000/svg">
<path d="M24.4775 3.41562C24.19 2.07187 23.3425 1.0125 22.2675 0.653125C20.3175 3.25963e-07 12.5 0 12.5 0C12.5 0 4.6825 3.25963e-07 2.7325 0.653125C1.6575 1.0125 0.81 2.07187 0.5225 3.41562C-3.72529e-08 5.85312 0 12.5 0 12.5C0 12.5 -3.72529e-08 19.1469 0.5225 21.5844C0.81 22.9281 1.6575 23.9875 2.7325 24.3469C4.6825 25 12.5 25 12.5 25C12.5 25 20.3175 25 22.2675 24.3469C23.3437 23.9875 24.19 22.9281 24.4775 21.5844C25 19.1469 25 12.5 25 12.5C25 12.5 25 5.85312 24.4775 3.41562ZM10 17.9125V7.0875L17.5 12.5L10 17.9125Z" fill="#CCCCCC"/>
</svg>
